<mxfile host="Electron" agent="Mozilla/5.0 (Windows NT 10.0; Win64; x64) AppleWebKit/537.36 (KHTML, like Gecko) draw.io/27.0.9 Chrome/134.0.6998.205 Electron/35.4.0 Safari/537.36" version="27.0.9">
  <diagram name="Page-1" id="ctU4fTcBu7hq6x0xD3_9">
    <mxGraphModel dx="1426" dy="849" grid="1" gridSize="10" guides="1" tooltips="1" connect="1" arrows="1" fold="1" page="1" pageScale="1" pageWidth="850" pageHeight="1100" math="0" shadow="0">
      <root>
        <mxCell id="0" />
        <mxCell id="1" parent="0" />
        <mxCell id="aYvVGQ8Libcyr0u94hhG-1" value="" style="ellipse;whiteSpace=wrap;html=1;aspect=fixed;fillColor=#ffe6cc;strokeColor=#000000;" parent="1" vertex="1">
          <mxGeometry x="240" y="40" width="80" height="80" as="geometry" />
        </mxCell>
        <mxCell id="aYvVGQ8Libcyr0u94hhG-3" value="" style="rounded=1;whiteSpace=wrap;html=1;fillColor=#ffe6cc;strokeColor=#000000;" parent="1" vertex="1">
          <mxGeometry x="40" y="40" width="80" height="80" as="geometry" />
        </mxCell>
        <mxCell id="aYvVGQ8Libcyr0u94hhG-4" value="" style="rounded=1;whiteSpace=wrap;html=1;fillColor=#ffe6cc;strokeColor=#000000;" parent="1" vertex="1">
          <mxGeometry x="440" y="60" width="80" height="40" as="geometry" />
        </mxCell>
        <mxCell id="aYvVGQ8Libcyr0u94hhG-5" value="External E&lt;span style=&quot;background-color: transparent; color: light-dark(rgb(0, 0, 0), rgb(255, 255, 255));&quot;&gt;ntity&lt;/span&gt;" style="text;html=1;align=center;verticalAlign=middle;resizable=0;points=[];autosize=1;strokeColor=none;fillColor=none;" parent="1" vertex="1">
          <mxGeometry x="30" y="130" width="100" height="30" as="geometry" />
        </mxCell>
        <mxCell id="aYvVGQ8Libcyr0u94hhG-6" value="Process" style="text;html=1;align=center;verticalAlign=middle;resizable=0;points=[];autosize=1;strokeColor=none;fillColor=none;" parent="1" vertex="1">
          <mxGeometry x="245" y="130" width="70" height="30" as="geometry" />
        </mxCell>
        <mxCell id="aYvVGQ8Libcyr0u94hhG-7" value="Data Store" style="text;html=1;align=center;verticalAlign=middle;resizable=0;points=[];autosize=1;strokeColor=none;fillColor=none;" parent="1" vertex="1">
          <mxGeometry x="440" y="130" width="80" height="30" as="geometry" />
        </mxCell>
        <mxCell id="aYvVGQ8Libcyr0u94hhG-10" style="edgeStyle=orthogonalEdgeStyle;rounded=0;orthogonalLoop=1;jettySize=auto;html=1;exitX=1;exitY=0.25;exitDx=0;exitDy=0;" parent="1" source="aYvVGQ8Libcyr0u94hhG-8" target="aYvVGQ8Libcyr0u94hhG-9" edge="1">
          <mxGeometry relative="1" as="geometry" />
        </mxCell>
        <mxCell id="aYvVGQ8Libcyr0u94hhG-8" value="Клерк" style="rounded=1;whiteSpace=wrap;html=1;fillColor=#ffe6cc;strokeColor=#000000;" parent="1" vertex="1">
          <mxGeometry x="40" y="800" width="80" height="80" as="geometry" />
        </mxCell>
        <mxCell id="aYvVGQ8Libcyr0u94hhG-25" style="edgeStyle=orthogonalEdgeStyle;rounded=0;orthogonalLoop=1;jettySize=auto;html=1;" parent="1" source="aYvVGQ8Libcyr0u94hhG-9" target="aYvVGQ8Libcyr0u94hhG-24" edge="1">
          <mxGeometry relative="1" as="geometry" />
        </mxCell>
        <mxCell id="aYvVGQ8Libcyr0u94hhG-9" value="Оформление&lt;div&gt;услуги&lt;/div&gt;" style="ellipse;whiteSpace=wrap;html=1;aspect=fixed;fillColor=#ffe6cc;strokeColor=#000000;" parent="1" vertex="1">
          <mxGeometry x="280" y="680" width="80" height="80" as="geometry" />
        </mxCell>
        <mxCell id="aYvVGQ8Libcyr0u94hhG-17" value="данные о клиенте&lt;div&gt;и услуге&lt;/div&gt;" style="text;html=1;align=center;verticalAlign=middle;resizable=0;points=[];autosize=1;strokeColor=none;fillColor=none;" parent="1" vertex="1">
          <mxGeometry x="160" y="780" width="120" height="40" as="geometry" />
        </mxCell>
        <mxCell id="aYvVGQ8Libcyr0u94hhG-20" value="данные&lt;div&gt;преобразуются&lt;/div&gt;&lt;div&gt;по форме отчетности&lt;/div&gt;" style="text;html=1;align=center;verticalAlign=middle;resizable=0;points=[];autosize=1;strokeColor=none;fillColor=none;" parent="1" vertex="1">
          <mxGeometry x="370" y="660" width="140" height="60" as="geometry" />
        </mxCell>
        <mxCell id="aYvVGQ8Libcyr0u94hhG-26" style="edgeStyle=orthogonalEdgeStyle;rounded=0;orthogonalLoop=1;jettySize=auto;html=1;entryX=0;entryY=0.5;entryDx=0;entryDy=0;" parent="1" source="aYvVGQ8Libcyr0u94hhG-24" target="aYvVGQ8Libcyr0u94hhG-29" edge="1">
          <mxGeometry relative="1" as="geometry">
            <mxPoint x="760" y="600" as="targetPoint" />
          </mxGeometry>
        </mxCell>
        <mxCell id="aYvVGQ8Libcyr0u94hhG-24" value="Витрина&lt;div&gt;Финансовый&lt;div&gt;сервис&lt;/div&gt;&lt;/div&gt;" style="rounded=1;whiteSpace=wrap;html=1;fillColor=#ffe6cc;strokeColor=#000000;" parent="1" vertex="1">
          <mxGeometry x="520" y="680" width="80" height="80" as="geometry" />
        </mxCell>
        <mxCell id="aYvVGQ8Libcyr0u94hhG-29" value="Data&lt;div&gt;LakeHouse&lt;/div&gt;" style="rounded=1;whiteSpace=wrap;html=1;fillColor=#ffe6cc;strokeColor=#000000;" parent="1" vertex="1">
          <mxGeometry x="720" y="700" width="80" height="40" as="geometry" />
        </mxCell>
        <mxCell id="rkqVLdpQq5zNvs2BlTqr-3" style="edgeStyle=orthogonalEdgeStyle;rounded=0;orthogonalLoop=1;jettySize=auto;html=1;exitX=1;exitY=0.25;exitDx=0;exitDy=0;" parent="1" source="aYvVGQ8Libcyr0u94hhG-69" target="rkqVLdpQq5zNvs2BlTqr-1" edge="1">
          <mxGeometry relative="1" as="geometry" />
        </mxCell>
        <mxCell id="rkqVLdpQq5zNvs2BlTqr-4" style="edgeStyle=orthogonalEdgeStyle;rounded=0;orthogonalLoop=1;jettySize=auto;html=1;exitX=1;exitY=0.75;exitDx=0;exitDy=0;entryX=0.5;entryY=0;entryDx=0;entryDy=0;" parent="1" source="aYvVGQ8Libcyr0u94hhG-69" target="rkqVLdpQq5zNvs2BlTqr-2" edge="1">
          <mxGeometry relative="1" as="geometry" />
        </mxCell>
        <mxCell id="aYvVGQ8Libcyr0u94hhG-69" value="Врач" style="rounded=1;whiteSpace=wrap;html=1;fillColor=#ffe6cc;strokeColor=#000000;" parent="1" vertex="1">
          <mxGeometry x="40" y="360" width="80" height="80" as="geometry" />
        </mxCell>
        <mxCell id="aYvVGQ8Libcyr0u94hhG-72" value="Data&lt;div&gt;LakeHouse&lt;/div&gt;" style="rounded=1;whiteSpace=wrap;html=1;fillColor=#ffe6cc;strokeColor=#000000;" parent="1" vertex="1">
          <mxGeometry x="600" y="260" width="80" height="40" as="geometry" />
        </mxCell>
        <mxCell id="aYvVGQ8Libcyr0u94hhG-97" value="&lt;span style=&quot;font-size: 14px;&quot;&gt;&lt;b&gt;&lt;u&gt;Финансы&lt;/u&gt;&lt;/b&gt;&lt;/span&gt;" style="text;html=1;align=center;verticalAlign=middle;resizable=0;points=[];autosize=1;strokeColor=none;fillColor=none;" parent="1" vertex="1">
          <mxGeometry x="40" y="640" width="90" height="30" as="geometry" />
        </mxCell>
        <mxCell id="aYvVGQ8Libcyr0u94hhG-98" value="&lt;b&gt;&lt;u&gt;&lt;font style=&quot;font-size: 14px;&quot;&gt;Медицина&lt;/font&gt;&lt;/u&gt;&lt;/b&gt;" style="text;html=1;align=center;verticalAlign=middle;resizable=0;points=[];autosize=1;strokeColor=none;fillColor=none;" parent="1" vertex="1">
          <mxGeometry x="40" y="200" width="90" height="30" as="geometry" />
        </mxCell>
        <mxCell id="Z6g9P9Qfab2Q0yu7D95G-13" value="шифрование&lt;div&gt;в покое&lt;/div&gt;" style="text;html=1;align=center;verticalAlign=middle;resizable=0;points=[];autosize=1;strokeColor=#b85450;fillColor=#f8cecc;" parent="1" vertex="1">
          <mxGeometry x="690" y="260" width="100" height="40" as="geometry" />
        </mxCell>
        <mxCell id="Z6g9P9Qfab2Q0yu7D95G-14" value="обезличивание" style="text;html=1;align=center;verticalAlign=middle;resizable=0;points=[];autosize=1;strokeColor=#b85450;fillColor=#f8cecc;" parent="1" vertex="1">
          <mxGeometry x="280" y="320" width="110" height="30" as="geometry" />
        </mxCell>
        <mxCell id="Z6g9P9Qfab2Q0yu7D95G-17" value="Data minimization" style="text;html=1;align=center;verticalAlign=middle;resizable=0;points=[];autosize=1;strokeColor=#b85450;fillColor=#f8cecc;" parent="1" vertex="1">
          <mxGeometry x="40" y="450" width="120" height="30" as="geometry" />
        </mxCell>
        <mxCell id="Z6g9P9Qfab2Q0yu7D95G-18" value="шифрование&lt;div&gt;передачи&lt;/div&gt;" style="text;html=1;align=center;verticalAlign=middle;resizable=0;points=[];autosize=1;strokeColor=#b85450;fillColor=#f8cecc;" parent="1" vertex="1">
          <mxGeometry x="420" y="380" width="100" height="40" as="geometry" />
        </mxCell>
        <mxCell id="Z6g9P9Qfab2Q0yu7D95G-19" value="доступ по ролям&lt;div&gt;и правам&lt;/div&gt;" style="text;html=1;align=center;verticalAlign=middle;resizable=0;points=[];autosize=1;strokeColor=#b85450;fillColor=#f8cecc;" parent="1" vertex="1">
          <mxGeometry x="40" y="490" width="120" height="40" as="geometry" />
        </mxCell>
        <mxCell id="Z6g9P9Qfab2Q0yu7D95G-21" value="токенизация" style="text;html=1;align=center;verticalAlign=middle;resizable=0;points=[];autosize=1;strokeColor=#b85450;fillColor=#f8cecc;" parent="1" vertex="1">
          <mxGeometry x="280" y="440" width="90" height="30" as="geometry" />
        </mxCell>
        <mxCell id="Z6g9P9Qfab2Q0yu7D95G-23" value="обфускация" style="text;html=1;align=center;verticalAlign=middle;resizable=0;points=[];autosize=1;strokeColor=#b85450;fillColor=#f8cecc;" parent="1" vertex="1">
          <mxGeometry x="280" y="360" width="90" height="30" as="geometry" />
        </mxCell>
        <mxCell id="Z6g9P9Qfab2Q0yu7D95G-25" value="тегирование" style="text;html=1;align=center;verticalAlign=middle;resizable=0;points=[];autosize=1;strokeColor=#b85450;fillColor=#f8cecc;" parent="1" vertex="1">
          <mxGeometry x="280" y="400" width="90" height="30" as="geometry" />
        </mxCell>
        <mxCell id="Z6g9P9Qfab2Q0yu7D95G-33" value="шифрование&lt;div&gt;в покое&lt;/div&gt;" style="text;html=1;align=center;verticalAlign=middle;resizable=0;points=[];autosize=1;strokeColor=#b85450;fillColor=#f8cecc;" parent="1" vertex="1">
          <mxGeometry x="810" y="700" width="100" height="40" as="geometry" />
        </mxCell>
        <mxCell id="Z6g9P9Qfab2Q0yu7D95G-34" value="шифрование&lt;div&gt;в покое&lt;/div&gt;" style="text;html=1;align=center;verticalAlign=middle;resizable=0;points=[];autosize=1;strokeColor=#b85450;fillColor=#f8cecc;" parent="1" vertex="1">
          <mxGeometry x="810" y="940" width="100" height="40" as="geometry" />
        </mxCell>
        <mxCell id="Z6g9P9Qfab2Q0yu7D95G-35" value="шифрование&lt;div&gt;передачи&lt;/div&gt;" style="text;html=1;align=center;verticalAlign=middle;resizable=0;points=[];autosize=1;strokeColor=#b85450;fillColor=#f8cecc;" parent="1" vertex="1">
          <mxGeometry x="390" y="730" width="100" height="40" as="geometry" />
        </mxCell>
        <mxCell id="Z6g9P9Qfab2Q0yu7D95G-36" value="Data minimization" style="text;html=1;align=center;verticalAlign=middle;resizable=0;points=[];autosize=1;strokeColor=#b85450;fillColor=#f8cecc;" parent="1" vertex="1">
          <mxGeometry x="40" y="890" width="120" height="30" as="geometry" />
        </mxCell>
        <mxCell id="Z6g9P9Qfab2Q0yu7D95G-39" value="доступ по ролям&lt;div&gt;и правам&lt;/div&gt;" style="text;html=1;align=center;verticalAlign=middle;resizable=0;points=[];autosize=1;strokeColor=#b85450;fillColor=#f8cecc;" parent="1" vertex="1">
          <mxGeometry x="40" y="930" width="120" height="40" as="geometry" />
        </mxCell>
        <mxCell id="Z6g9P9Qfab2Q0yu7D95G-40" value="обфускация" style="text;html=1;align=center;verticalAlign=middle;resizable=0;points=[];autosize=1;strokeColor=#b85450;fillColor=#f8cecc;" parent="1" vertex="1">
          <mxGeometry x="490" y="780" width="90" height="30" as="geometry" />
        </mxCell>
        <mxCell id="Z6g9P9Qfab2Q0yu7D95G-42" value="тегирование" style="text;html=1;align=center;verticalAlign=middle;resizable=0;points=[];autosize=1;strokeColor=#b85450;fillColor=#f8cecc;" parent="1" vertex="1">
          <mxGeometry x="390" y="780" width="90" height="30" as="geometry" />
        </mxCell>
        <mxCell id="Z6g9P9Qfab2Q0yu7D95G-43" value="токенизация" style="text;html=1;align=center;verticalAlign=middle;resizable=0;points=[];autosize=1;strokeColor=#b85450;fillColor=#f8cecc;" parent="1" vertex="1">
          <mxGeometry x="390" y="820" width="90" height="30" as="geometry" />
        </mxCell>
        <mxCell id="rkqVLdpQq5zNvs2BlTqr-28" style="edgeStyle=orthogonalEdgeStyle;rounded=0;orthogonalLoop=1;jettySize=auto;html=1;exitX=1;exitY=0.5;exitDx=0;exitDy=0;entryX=0;entryY=0.5;entryDx=0;entryDy=0;" parent="1" source="rkqVLdpQq5zNvs2BlTqr-1" target="rkqVLdpQq5zNvs2BlTqr-27" edge="1">
          <mxGeometry relative="1" as="geometry" />
        </mxCell>
        <mxCell id="rkqVLdpQq5zNvs2BlTqr-1" value="Ведение&lt;div&gt;мед. карты&lt;/div&gt;" style="ellipse;whiteSpace=wrap;html=1;aspect=fixed;fillColor=#ffe6cc;strokeColor=#000000;" parent="1" vertex="1">
          <mxGeometry x="200" y="240" width="80" height="80" as="geometry" />
        </mxCell>
        <mxCell id="rkqVLdpQq5zNvs2BlTqr-6" style="edgeStyle=orthogonalEdgeStyle;rounded=0;orthogonalLoop=1;jettySize=auto;html=1;entryX=0;entryY=0.5;entryDx=0;entryDy=0;" parent="1" source="rkqVLdpQq5zNvs2BlTqr-2" edge="1">
          <mxGeometry relative="1" as="geometry">
            <mxPoint x="400" y="520" as="targetPoint" />
          </mxGeometry>
        </mxCell>
        <mxCell id="rkqVLdpQq5zNvs2BlTqr-2" value="&lt;div&gt;Данные для&lt;/div&gt;&lt;div&gt;исследований&lt;/div&gt;" style="ellipse;whiteSpace=wrap;html=1;aspect=fixed;fillColor=#ffe6cc;strokeColor=#000000;" parent="1" vertex="1">
          <mxGeometry x="200" y="480" width="80" height="80" as="geometry" />
        </mxCell>
        <mxCell id="rkqVLdpQq5zNvs2BlTqr-9" value="шифрование&lt;div&gt;в покое&lt;/div&gt;" style="text;html=1;align=center;verticalAlign=middle;resizable=0;points=[];autosize=1;strokeColor=#b85450;fillColor=#f8cecc;" parent="1" vertex="1">
          <mxGeometry x="690" y="500" width="100" height="40" as="geometry" />
        </mxCell>
        <mxCell id="cns_aaHDdNOC0s7ZhP9s-22" style="edgeStyle=orthogonalEdgeStyle;rounded=0;orthogonalLoop=1;jettySize=auto;html=1;exitX=0.5;exitY=0;exitDx=0;exitDy=0;entryX=1;entryY=0.75;entryDx=0;entryDy=0;" edge="1" parent="1" source="rkqVLdpQq5zNvs2BlTqr-10" target="aYvVGQ8Libcyr0u94hhG-8">
          <mxGeometry relative="1" as="geometry" />
        </mxCell>
        <mxCell id="rkqVLdpQq5zNvs2BlTqr-10" value="Получение&lt;div&gt;отчета&lt;/div&gt;" style="ellipse;whiteSpace=wrap;html=1;aspect=fixed;fillColor=#ffe6cc;strokeColor=#000000;" parent="1" vertex="1">
          <mxGeometry x="280" y="920" width="80" height="80" as="geometry" />
        </mxCell>
        <mxCell id="rkqVLdpQq5zNvs2BlTqr-17" style="edgeStyle=orthogonalEdgeStyle;rounded=0;orthogonalLoop=1;jettySize=auto;html=1;entryX=1;entryY=0.5;entryDx=0;entryDy=0;" parent="1" source="rkqVLdpQq5zNvs2BlTqr-12" target="rkqVLdpQq5zNvs2BlTqr-10" edge="1">
          <mxGeometry relative="1" as="geometry" />
        </mxCell>
        <mxCell id="rkqVLdpQq5zNvs2BlTqr-12" value="Витрина&lt;div&gt;Финансовый&lt;div&gt;сервис&lt;/div&gt;&lt;/div&gt;" style="rounded=1;whiteSpace=wrap;html=1;fillColor=#ffe6cc;strokeColor=#000000;" parent="1" vertex="1">
          <mxGeometry x="420" y="920" width="80" height="80" as="geometry" />
        </mxCell>
        <mxCell id="rkqVLdpQq5zNvs2BlTqr-15" style="edgeStyle=orthogonalEdgeStyle;rounded=0;orthogonalLoop=1;jettySize=auto;html=1;entryX=1;entryY=0.5;entryDx=0;entryDy=0;" parent="1" source="rkqVLdpQq5zNvs2BlTqr-13" target="rkqVLdpQq5zNvs2BlTqr-14" edge="1">
          <mxGeometry relative="1" as="geometry" />
        </mxCell>
        <mxCell id="rkqVLdpQq5zNvs2BlTqr-13" value="Data&lt;div&gt;LakeHouse&lt;/div&gt;" style="rounded=1;whiteSpace=wrap;html=1;fillColor=#ffe6cc;strokeColor=#000000;" parent="1" vertex="1">
          <mxGeometry x="720" y="940" width="80" height="40" as="geometry" />
        </mxCell>
        <mxCell id="rkqVLdpQq5zNvs2BlTqr-16" style="edgeStyle=orthogonalEdgeStyle;rounded=0;orthogonalLoop=1;jettySize=auto;html=1;entryX=1;entryY=0.5;entryDx=0;entryDy=0;" parent="1" source="rkqVLdpQq5zNvs2BlTqr-14" target="rkqVLdpQq5zNvs2BlTqr-12" edge="1">
          <mxGeometry relative="1" as="geometry" />
        </mxCell>
        <mxCell id="rkqVLdpQq5zNvs2BlTqr-14" value="Процессинг&lt;div&gt;центр&lt;/div&gt;" style="rounded=1;whiteSpace=wrap;html=1;fillColor=#ffe6cc;strokeColor=#000000;" parent="1" vertex="1">
          <mxGeometry x="580" y="920" width="80" height="80" as="geometry" />
        </mxCell>
        <mxCell id="rkqVLdpQq5zNvs2BlTqr-18" value="шифрование&lt;div&gt;передачи&lt;/div&gt;" style="text;html=1;align=center;verticalAlign=middle;resizable=0;points=[];autosize=1;strokeColor=#b85450;fillColor=#f8cecc;" parent="1" vertex="1">
          <mxGeometry x="410" y="1010" width="100" height="40" as="geometry" />
        </mxCell>
        <mxCell id="rkqVLdpQq5zNvs2BlTqr-19" value="Исходные данные&lt;div&gt;выгружаются&lt;/div&gt;" style="text;html=1;align=center;verticalAlign=middle;resizable=0;points=[];autosize=1;strokeColor=none;fillColor=none;" parent="1" vertex="1">
          <mxGeometry x="660" y="890" width="120" height="40" as="geometry" />
        </mxCell>
        <mxCell id="rkqVLdpQq5zNvs2BlTqr-20" value="Обработанные&lt;div&gt;данные&lt;/div&gt;" style="text;html=1;align=center;verticalAlign=middle;resizable=0;points=[];autosize=1;strokeColor=none;fillColor=none;" parent="1" vertex="1">
          <mxGeometry x="485" y="890" width="110" height="40" as="geometry" />
        </mxCell>
        <mxCell id="rkqVLdpQq5zNvs2BlTqr-21" value="Готовый&lt;div&gt;документ&lt;/div&gt;" style="text;html=1;align=center;verticalAlign=middle;resizable=0;points=[];autosize=1;strokeColor=none;fillColor=none;" parent="1" vertex="1">
          <mxGeometry x="320" y="880" width="80" height="40" as="geometry" />
        </mxCell>
        <mxCell id="rkqVLdpQq5zNvs2BlTqr-22" value="Карта&lt;div&gt;сохраняется&lt;/div&gt;" style="text;html=1;align=center;verticalAlign=middle;resizable=0;points=[];autosize=1;strokeColor=none;fillColor=none;" parent="1" vertex="1">
          <mxGeometry x="290" y="240" width="90" height="40" as="geometry" />
        </mxCell>
        <mxCell id="rkqVLdpQq5zNvs2BlTqr-23" value="Обезличенные&lt;div&gt;абстрактные данные&lt;/div&gt;&lt;div&gt;для исследований&lt;/div&gt;" style="text;html=1;align=center;verticalAlign=middle;resizable=0;points=[];autosize=1;strokeColor=none;fillColor=none;" parent="1" vertex="1">
          <mxGeometry x="265" y="520" width="140" height="60" as="geometry" />
        </mxCell>
        <mxCell id="rkqVLdpQq5zNvs2BlTqr-24" value="Data&lt;div&gt;LakeHouse&lt;/div&gt;" style="rounded=1;whiteSpace=wrap;html=1;fillColor=#ffe6cc;strokeColor=#000000;" parent="1" vertex="1">
          <mxGeometry x="600" y="500" width="80" height="40" as="geometry" />
        </mxCell>
        <mxCell id="rkqVLdpQq5zNvs2BlTqr-26" style="edgeStyle=orthogonalEdgeStyle;rounded=0;orthogonalLoop=1;jettySize=auto;html=1;entryX=0;entryY=0.5;entryDx=0;entryDy=0;" parent="1" source="rkqVLdpQq5zNvs2BlTqr-25" target="rkqVLdpQq5zNvs2BlTqr-24" edge="1">
          <mxGeometry relative="1" as="geometry" />
        </mxCell>
        <mxCell id="rkqVLdpQq5zNvs2BlTqr-25" value="Витрина&lt;div&gt;Медицинский&lt;div&gt;сервис&lt;/div&gt;&lt;/div&gt;" style="rounded=1;whiteSpace=wrap;html=1;fillColor=#ffe6cc;strokeColor=#000000;" parent="1" vertex="1">
          <mxGeometry x="400" y="480" width="80" height="80" as="geometry" />
        </mxCell>
        <mxCell id="rkqVLdpQq5zNvs2BlTqr-29" style="edgeStyle=orthogonalEdgeStyle;rounded=0;orthogonalLoop=1;jettySize=auto;html=1;entryX=0;entryY=0.5;entryDx=0;entryDy=0;" parent="1" source="rkqVLdpQq5zNvs2BlTqr-27" target="aYvVGQ8Libcyr0u94hhG-72" edge="1">
          <mxGeometry relative="1" as="geometry" />
        </mxCell>
        <mxCell id="rkqVLdpQq5zNvs2BlTqr-27" value="Витрина&lt;div&gt;Медицинский&lt;div&gt;сервис&lt;/div&gt;&lt;/div&gt;" style="rounded=1;whiteSpace=wrap;html=1;fillColor=#ffe6cc;strokeColor=#000000;" parent="1" vertex="1">
          <mxGeometry x="400" y="240" width="80" height="80" as="geometry" />
        </mxCell>
        <mxCell id="rkqVLdpQq5zNvs2BlTqr-30" value="Данные&lt;div&gt;в формате БД&lt;/div&gt;" style="text;html=1;align=center;verticalAlign=middle;resizable=0;points=[];autosize=1;strokeColor=none;fillColor=none;" parent="1" vertex="1">
          <mxGeometry x="490" y="520" width="100" height="40" as="geometry" />
        </mxCell>
        <mxCell id="rkqVLdpQq5zNvs2BlTqr-31" value="Данные&lt;div&gt;в формате БД&lt;/div&gt;" style="text;html=1;align=center;verticalAlign=middle;resizable=0;points=[];autosize=1;strokeColor=none;fillColor=none;" parent="1" vertex="1">
          <mxGeometry x="490" y="280" width="100" height="40" as="geometry" />
        </mxCell>
        <mxCell id="rkqVLdpQq5zNvs2BlTqr-32" value="Данные&lt;div&gt;в формате БД&lt;/div&gt;" style="text;html=1;align=center;verticalAlign=middle;resizable=0;points=[];autosize=1;strokeColor=none;fillColor=none;" parent="1" vertex="1">
          <mxGeometry x="610" y="720" width="100" height="40" as="geometry" />
        </mxCell>
        <mxCell id="rkqVLdpQq5zNvs2BlTqr-35" value="Аналитик" style="rounded=1;whiteSpace=wrap;html=1;fillColor=#ffe6cc;strokeColor=#000000;" parent="1" vertex="1">
          <mxGeometry x="40" y="1200" width="80" height="80" as="geometry" />
        </mxCell>
        <mxCell id="rkqVLdpQq5zNvs2BlTqr-43" value="&lt;span style=&quot;font-size: 14px;&quot;&gt;&lt;b&gt;&lt;u&gt;Аналитика&lt;/u&gt;&lt;/b&gt;&lt;/span&gt;" style="text;html=1;align=center;verticalAlign=middle;resizable=0;points=[];autosize=1;strokeColor=none;fillColor=none;" parent="1" vertex="1">
          <mxGeometry x="40" y="1120" width="100" height="30" as="geometry" />
        </mxCell>
        <mxCell id="rkqVLdpQq5zNvs2BlTqr-45" value="шифрование&lt;div&gt;в покое&lt;/div&gt;" style="text;html=1;align=center;verticalAlign=middle;resizable=0;points=[];autosize=1;strokeColor=#b85450;fillColor=#f8cecc;" parent="1" vertex="1">
          <mxGeometry x="930" y="1220" width="100" height="40" as="geometry" />
        </mxCell>
        <mxCell id="rkqVLdpQq5zNvs2BlTqr-48" value="доступ по ролям&lt;div&gt;и правам&lt;/div&gt;" style="text;html=1;align=center;verticalAlign=middle;resizable=0;points=[];autosize=1;strokeColor=#b85450;fillColor=#f8cecc;" parent="1" vertex="1">
          <mxGeometry x="45" y="1290" width="120" height="40" as="geometry" />
        </mxCell>
        <mxCell id="cns_aaHDdNOC0s7ZhP9s-21" style="edgeStyle=orthogonalEdgeStyle;rounded=0;orthogonalLoop=1;jettySize=auto;html=1;entryX=1;entryY=0.5;entryDx=0;entryDy=0;" edge="1" parent="1" source="rkqVLdpQq5zNvs2BlTqr-52" target="rkqVLdpQq5zNvs2BlTqr-35">
          <mxGeometry relative="1" as="geometry" />
        </mxCell>
        <mxCell id="rkqVLdpQq5zNvs2BlTqr-52" value="Получение&lt;div&gt;отчета&lt;/div&gt;" style="ellipse;whiteSpace=wrap;html=1;aspect=fixed;fillColor=#ffe6cc;strokeColor=#000000;" parent="1" vertex="1">
          <mxGeometry x="240" y="1200" width="80" height="80" as="geometry" />
        </mxCell>
        <mxCell id="rkqVLdpQq5zNvs2BlTqr-53" style="edgeStyle=orthogonalEdgeStyle;rounded=0;orthogonalLoop=1;jettySize=auto;html=1;entryX=1;entryY=0.5;entryDx=0;entryDy=0;" parent="1" source="rkqVLdpQq5zNvs2BlTqr-54" target="rkqVLdpQq5zNvs2BlTqr-52" edge="1">
          <mxGeometry relative="1" as="geometry" />
        </mxCell>
        <mxCell id="rkqVLdpQq5zNvs2BlTqr-54" value="Витрина&lt;div&gt;Сервис&lt;div&gt;аналитики&lt;/div&gt;&lt;/div&gt;" style="rounded=1;whiteSpace=wrap;html=1;fillColor=#ffe6cc;strokeColor=#000000;" parent="1" vertex="1">
          <mxGeometry x="440" y="1200" width="80" height="80" as="geometry" />
        </mxCell>
        <mxCell id="rkqVLdpQq5zNvs2BlTqr-55" style="edgeStyle=orthogonalEdgeStyle;rounded=0;orthogonalLoop=1;jettySize=auto;html=1;entryX=1;entryY=0.5;entryDx=0;entryDy=0;" parent="1" source="rkqVLdpQq5zNvs2BlTqr-56" target="rkqVLdpQq5zNvs2BlTqr-58" edge="1">
          <mxGeometry relative="1" as="geometry" />
        </mxCell>
        <mxCell id="rkqVLdpQq5zNvs2BlTqr-56" value="Data&lt;div&gt;LakeHouse&lt;/div&gt;" style="rounded=1;whiteSpace=wrap;html=1;fillColor=#ffe6cc;strokeColor=#000000;" parent="1" vertex="1">
          <mxGeometry x="840" y="1220" width="80" height="40" as="geometry" />
        </mxCell>
        <mxCell id="rkqVLdpQq5zNvs2BlTqr-57" style="edgeStyle=orthogonalEdgeStyle;rounded=0;orthogonalLoop=1;jettySize=auto;html=1;entryX=1;entryY=0.5;entryDx=0;entryDy=0;" parent="1" source="rkqVLdpQq5zNvs2BlTqr-58" target="rkqVLdpQq5zNvs2BlTqr-54" edge="1">
          <mxGeometry relative="1" as="geometry" />
        </mxCell>
        <mxCell id="rkqVLdpQq5zNvs2BlTqr-58" value="Процессинг&lt;div&gt;центр&lt;/div&gt;" style="rounded=1;whiteSpace=wrap;html=1;fillColor=#ffe6cc;strokeColor=#000000;" parent="1" vertex="1">
          <mxGeometry x="640" y="1200" width="80" height="80" as="geometry" />
        </mxCell>
        <mxCell id="rkqVLdpQq5zNvs2BlTqr-59" value="шифрование&lt;div&gt;передачи&lt;/div&gt;" style="text;html=1;align=center;verticalAlign=middle;resizable=0;points=[];autosize=1;strokeColor=#b85450;fillColor=#f8cecc;" parent="1" vertex="1">
          <mxGeometry x="430" y="1150" width="100" height="40" as="geometry" />
        </mxCell>
        <mxCell id="rkqVLdpQq5zNvs2BlTqr-60" value="Исходные данные&lt;div&gt;выгружаются&lt;/div&gt;" style="text;html=1;align=center;verticalAlign=middle;resizable=0;points=[];autosize=1;strokeColor=none;fillColor=none;" parent="1" vertex="1">
          <mxGeometry x="720" y="1240" width="120" height="40" as="geometry" />
        </mxCell>
        <mxCell id="rkqVLdpQq5zNvs2BlTqr-61" value="Обработанные&lt;div&gt;данные&lt;/div&gt;" style="text;html=1;align=center;verticalAlign=middle;resizable=0;points=[];autosize=1;strokeColor=none;fillColor=none;" parent="1" vertex="1">
          <mxGeometry x="530" y="1240" width="110" height="40" as="geometry" />
        </mxCell>
        <mxCell id="rkqVLdpQq5zNvs2BlTqr-62" value="Готовый&lt;div&gt;отчет&lt;/div&gt;" style="text;html=1;align=center;verticalAlign=middle;resizable=0;points=[];autosize=1;strokeColor=none;fillColor=none;" parent="1" vertex="1">
          <mxGeometry x="370" y="1240" width="70" height="40" as="geometry" />
        </mxCell>
        <mxCell id="cns_aaHDdNOC0s7ZhP9s-3" style="edgeStyle=orthogonalEdgeStyle;rounded=0;orthogonalLoop=1;jettySize=auto;html=1;exitX=1;exitY=0.25;exitDx=0;exitDy=0;entryX=0;entryY=0.5;entryDx=0;entryDy=0;" edge="1" parent="1" source="rkqVLdpQq5zNvs2BlTqr-66" target="rkqVLdpQq5zNvs2BlTqr-70">
          <mxGeometry relative="1" as="geometry" />
        </mxCell>
        <mxCell id="rkqVLdpQq5zNvs2BlTqr-66" value="Ученый" style="rounded=1;whiteSpace=wrap;html=1;fillColor=#ffe6cc;strokeColor=#000000;" parent="1" vertex="1">
          <mxGeometry x="40" y="1600" width="80" height="80" as="geometry" />
        </mxCell>
        <mxCell id="rkqVLdpQq5zNvs2BlTqr-67" value="&lt;span style=&quot;font-size: 14px;&quot;&gt;&lt;b&gt;&lt;u&gt;Исследования&lt;/u&gt;&lt;/b&gt;&lt;/span&gt;" style="text;html=1;align=center;verticalAlign=middle;resizable=0;points=[];autosize=1;strokeColor=none;fillColor=none;" parent="1" vertex="1">
          <mxGeometry x="40" y="1400" width="120" height="30" as="geometry" />
        </mxCell>
        <mxCell id="rkqVLdpQq5zNvs2BlTqr-68" value="шифрование&lt;div&gt;в покое&lt;/div&gt;" style="text;html=1;align=center;verticalAlign=middle;resizable=0;points=[];autosize=1;strokeColor=#b85450;fillColor=#f8cecc;" parent="1" vertex="1">
          <mxGeometry x="930" y="1500" width="100" height="40" as="geometry" />
        </mxCell>
        <mxCell id="rkqVLdpQq5zNvs2BlTqr-69" value="доступ по ролям&lt;div&gt;и правам&lt;/div&gt;" style="text;html=1;align=center;verticalAlign=middle;resizable=0;points=[];autosize=1;strokeColor=#b85450;fillColor=#f8cecc;" parent="1" vertex="1">
          <mxGeometry x="40" y="1690" width="120" height="40" as="geometry" />
        </mxCell>
        <mxCell id="cns_aaHDdNOC0s7ZhP9s-4" style="edgeStyle=orthogonalEdgeStyle;rounded=0;orthogonalLoop=1;jettySize=auto;html=1;exitX=1;exitY=0.5;exitDx=0;exitDy=0;entryX=0;entryY=0.5;entryDx=0;entryDy=0;" edge="1" parent="1" source="rkqVLdpQq5zNvs2BlTqr-70" target="rkqVLdpQq5zNvs2BlTqr-72">
          <mxGeometry relative="1" as="geometry" />
        </mxCell>
        <mxCell id="rkqVLdpQq5zNvs2BlTqr-70" value="Настройка&lt;div&gt;модели&lt;/div&gt;" style="ellipse;whiteSpace=wrap;html=1;aspect=fixed;fillColor=#ffe6cc;strokeColor=#000000;" parent="1" vertex="1">
          <mxGeometry x="240" y="1480" width="80" height="80" as="geometry" />
        </mxCell>
        <mxCell id="cns_aaHDdNOC0s7ZhP9s-5" style="edgeStyle=orthogonalEdgeStyle;rounded=0;orthogonalLoop=1;jettySize=auto;html=1;entryX=0;entryY=0.5;entryDx=0;entryDy=0;" edge="1" parent="1" source="rkqVLdpQq5zNvs2BlTqr-72" target="rkqVLdpQq5zNvs2BlTqr-76">
          <mxGeometry relative="1" as="geometry" />
        </mxCell>
        <mxCell id="rkqVLdpQq5zNvs2BlTqr-72" value="Витрина&lt;div&gt;Сервис&lt;div&gt;исследований&lt;/div&gt;&lt;/div&gt;" style="rounded=1;whiteSpace=wrap;html=1;fillColor=#ffe6cc;strokeColor=#000000;" parent="1" vertex="1">
          <mxGeometry x="440" y="1480" width="80" height="80" as="geometry" />
        </mxCell>
        <mxCell id="cns_aaHDdNOC0s7ZhP9s-6" style="edgeStyle=orthogonalEdgeStyle;rounded=0;orthogonalLoop=1;jettySize=auto;html=1;entryX=1;entryY=0.5;entryDx=0;entryDy=0;" edge="1" parent="1" source="rkqVLdpQq5zNvs2BlTqr-74" target="rkqVLdpQq5zNvs2BlTqr-76">
          <mxGeometry relative="1" as="geometry" />
        </mxCell>
        <mxCell id="rkqVLdpQq5zNvs2BlTqr-74" value="Data&lt;div&gt;LakeHouse&lt;/div&gt;" style="rounded=1;whiteSpace=wrap;html=1;fillColor=#ffe6cc;strokeColor=#000000;" parent="1" vertex="1">
          <mxGeometry x="840" y="1500" width="80" height="40" as="geometry" />
        </mxCell>
        <mxCell id="cns_aaHDdNOC0s7ZhP9s-8" style="edgeStyle=orthogonalEdgeStyle;rounded=0;orthogonalLoop=1;jettySize=auto;html=1;entryX=0.5;entryY=0;entryDx=0;entryDy=0;" edge="1" parent="1" source="rkqVLdpQq5zNvs2BlTqr-76" target="rkqVLdpQq5zNvs2BlTqr-85">
          <mxGeometry relative="1" as="geometry" />
        </mxCell>
        <mxCell id="rkqVLdpQq5zNvs2BlTqr-76" value="Процессинг&lt;div&gt;центр&lt;/div&gt;" style="rounded=1;whiteSpace=wrap;html=1;fillColor=#ffe6cc;strokeColor=#000000;" parent="1" vertex="1">
          <mxGeometry x="640" y="1480" width="80" height="80" as="geometry" />
        </mxCell>
        <mxCell id="rkqVLdpQq5zNvs2BlTqr-77" value="шифрование&lt;div&gt;передачи&lt;/div&gt;" style="text;html=1;align=center;verticalAlign=middle;resizable=0;points=[];autosize=1;strokeColor=#b85450;fillColor=#f8cecc;" parent="1" vertex="1">
          <mxGeometry x="430" y="1430" width="100" height="40" as="geometry" />
        </mxCell>
        <mxCell id="rkqVLdpQq5zNvs2BlTqr-78" value="Исходные данные&lt;div&gt;выгружаются&lt;/div&gt;" style="text;html=1;align=center;verticalAlign=middle;resizable=0;points=[];autosize=1;strokeColor=none;fillColor=none;" parent="1" vertex="1">
          <mxGeometry x="720" y="1520" width="120" height="40" as="geometry" />
        </mxCell>
        <mxCell id="cns_aaHDdNOC0s7ZhP9s-12" style="edgeStyle=orthogonalEdgeStyle;rounded=0;orthogonalLoop=1;jettySize=auto;html=1;entryX=0.5;entryY=0;entryDx=0;entryDy=0;" edge="1" parent="1" source="rkqVLdpQq5zNvs2BlTqr-85" target="cns_aaHDdNOC0s7ZhP9s-11">
          <mxGeometry relative="1" as="geometry" />
        </mxCell>
        <mxCell id="rkqVLdpQq5zNvs2BlTqr-85" value="Вычислительный&lt;div&gt;кластер&lt;/div&gt;" style="rounded=1;whiteSpace=wrap;html=1;fillColor=#ffe6cc;strokeColor=#000000;" parent="1" vertex="1">
          <mxGeometry x="620" y="1600" width="120" height="80" as="geometry" />
        </mxCell>
        <mxCell id="rkqVLdpQq5zNvs2BlTqr-89" value="Обработанные&lt;div&gt;данные&lt;/div&gt;" style="text;html=1;align=center;verticalAlign=middle;resizable=0;points=[];autosize=1;strokeColor=none;fillColor=none;" parent="1" vertex="1">
          <mxGeometry x="530" y="1760" width="110" height="40" as="geometry" />
        </mxCell>
        <mxCell id="rkqVLdpQq5zNvs2BlTqr-90" value="Результаты&lt;div&gt;расчета&lt;/div&gt;" style="text;html=1;align=center;verticalAlign=middle;resizable=0;points=[];autosize=1;strokeColor=none;fillColor=none;" parent="1" vertex="1">
          <mxGeometry x="680" y="1680" width="90" height="40" as="geometry" />
        </mxCell>
        <mxCell id="rkqVLdpQq5zNvs2BlTqr-92" value="Готовый&lt;div&gt;отчет&lt;/div&gt;" style="text;html=1;align=center;verticalAlign=middle;resizable=0;points=[];autosize=1;strokeColor=none;fillColor=none;" parent="1" vertex="1">
          <mxGeometry x="370" y="1760" width="70" height="40" as="geometry" />
        </mxCell>
        <mxCell id="cns_aaHDdNOC0s7ZhP9s-14" style="edgeStyle=orthogonalEdgeStyle;rounded=0;orthogonalLoop=1;jettySize=auto;html=1;exitX=0;exitY=0.5;exitDx=0;exitDy=0;entryX=1;entryY=0.75;entryDx=0;entryDy=0;" edge="1" parent="1" source="cns_aaHDdNOC0s7ZhP9s-1" target="rkqVLdpQq5zNvs2BlTqr-66">
          <mxGeometry relative="1" as="geometry" />
        </mxCell>
        <mxCell id="cns_aaHDdNOC0s7ZhP9s-1" value="Анализ&lt;div&gt;результатов&lt;/div&gt;" style="ellipse;whiteSpace=wrap;html=1;aspect=fixed;fillColor=#ffe6cc;strokeColor=#000000;" vertex="1" parent="1">
          <mxGeometry x="240" y="1720" width="80" height="80" as="geometry" />
        </mxCell>
        <mxCell id="cns_aaHDdNOC0s7ZhP9s-10" style="edgeStyle=orthogonalEdgeStyle;rounded=0;orthogonalLoop=1;jettySize=auto;html=1;entryX=1;entryY=0.5;entryDx=0;entryDy=0;" edge="1" parent="1" source="cns_aaHDdNOC0s7ZhP9s-9" target="cns_aaHDdNOC0s7ZhP9s-1">
          <mxGeometry relative="1" as="geometry" />
        </mxCell>
        <mxCell id="cns_aaHDdNOC0s7ZhP9s-9" value="Витрина&lt;div&gt;Сервис&lt;div&gt;исследований&lt;/div&gt;&lt;/div&gt;" style="rounded=1;whiteSpace=wrap;html=1;fillColor=#ffe6cc;strokeColor=#000000;" vertex="1" parent="1">
          <mxGeometry x="440" y="1720" width="80" height="80" as="geometry" />
        </mxCell>
        <mxCell id="cns_aaHDdNOC0s7ZhP9s-13" style="edgeStyle=orthogonalEdgeStyle;rounded=0;orthogonalLoop=1;jettySize=auto;html=1;entryX=1;entryY=0.5;entryDx=0;entryDy=0;" edge="1" parent="1" source="cns_aaHDdNOC0s7ZhP9s-11" target="cns_aaHDdNOC0s7ZhP9s-9">
          <mxGeometry relative="1" as="geometry" />
        </mxCell>
        <mxCell id="cns_aaHDdNOC0s7ZhP9s-19" style="edgeStyle=orthogonalEdgeStyle;rounded=0;orthogonalLoop=1;jettySize=auto;html=1;entryX=0;entryY=0.5;entryDx=0;entryDy=0;" edge="1" parent="1" source="cns_aaHDdNOC0s7ZhP9s-11" target="cns_aaHDdNOC0s7ZhP9s-17">
          <mxGeometry relative="1" as="geometry" />
        </mxCell>
        <mxCell id="cns_aaHDdNOC0s7ZhP9s-11" value="Процессинг&lt;div&gt;центр&lt;/div&gt;" style="rounded=1;whiteSpace=wrap;html=1;fillColor=#ffe6cc;strokeColor=#000000;" vertex="1" parent="1">
          <mxGeometry x="640" y="1720" width="80" height="80" as="geometry" />
        </mxCell>
        <mxCell id="cns_aaHDdNOC0s7ZhP9s-15" value="Настройки" style="text;html=1;align=center;verticalAlign=middle;resizable=0;points=[];autosize=1;strokeColor=none;fillColor=none;" vertex="1" parent="1">
          <mxGeometry x="360" y="1490" width="80" height="30" as="geometry" />
        </mxCell>
        <mxCell id="cns_aaHDdNOC0s7ZhP9s-16" value="Набор&lt;div&gt;инструкций&lt;/div&gt;" style="text;html=1;align=center;verticalAlign=middle;resizable=0;points=[];autosize=1;strokeColor=none;fillColor=none;" vertex="1" parent="1">
          <mxGeometry x="550" y="1480" width="90" height="40" as="geometry" />
        </mxCell>
        <mxCell id="cns_aaHDdNOC0s7ZhP9s-17" value="Data&lt;div&gt;LakeHouse&lt;/div&gt;" style="rounded=1;whiteSpace=wrap;html=1;fillColor=#ffe6cc;strokeColor=#000000;" vertex="1" parent="1">
          <mxGeometry x="840" y="1740" width="80" height="40" as="geometry" />
        </mxCell>
        <mxCell id="cns_aaHDdNOC0s7ZhP9s-18" value="шифрование&lt;div&gt;в покое&lt;/div&gt;" style="text;html=1;align=center;verticalAlign=middle;resizable=0;points=[];autosize=1;strokeColor=#b85450;fillColor=#f8cecc;" vertex="1" parent="1">
          <mxGeometry x="930" y="1740" width="100" height="40" as="geometry" />
        </mxCell>
        <mxCell id="cns_aaHDdNOC0s7ZhP9s-20" value="шифрование&lt;div&gt;передачи&lt;/div&gt;" style="text;html=1;align=center;verticalAlign=middle;resizable=0;points=[];autosize=1;strokeColor=#b85450;fillColor=#f8cecc;" vertex="1" parent="1">
          <mxGeometry x="430" y="1810" width="100" height="40" as="geometry" />
        </mxCell>
        <mxCell id="cns_aaHDdNOC0s7ZhP9s-23" value="Данные&lt;div&gt;в формате БД&lt;/div&gt;" style="text;html=1;align=center;verticalAlign=middle;resizable=0;points=[];autosize=1;strokeColor=none;fillColor=none;" vertex="1" parent="1">
          <mxGeometry x="740" y="1760" width="100" height="40" as="geometry" />
        </mxCell>
      </root>
    </mxGraphModel>
  </diagram>
</mxfile>
